<svg width="125" height="125" viewBox="0 0 125 125" fill="none" xmlns="http://www.w3.org/2000/svg">
<g clip-path="url(#clip0)">
<path d="M122.068 42.9688H107.451L103.389 32.8125C99.2139 22.3706 89.2505 15.625 78.003 15.625H46.9971C35.752 15.625 25.7862 22.3706 21.6089 32.8125L17.5464 42.9688H2.93216C1.02542 42.9688 -0.373507 44.7607 0.0903597 46.6089L1.5552 52.4683C1.87991 53.772 3.05178 54.6875 4.397 54.6875H9.2969C6.01809 57.5513 3.90628 61.7139 3.90628 66.4062V78.125C3.90628 82.0605 5.41018 85.6128 7.81253 88.3618V101.562C7.81253 105.876 11.3111 109.375 15.625 109.375H23.4375C27.7515 109.375 31.25 105.876 31.25 101.562V93.75H93.75V101.562C93.75 105.876 97.2486 109.375 101.563 109.375H109.375C113.689 109.375 117.188 105.876 117.188 101.562V88.3618C119.59 85.6152 121.094 82.063 121.094 78.125V66.4062C121.094 61.7139 118.982 57.5513 115.706 54.6875H120.605C121.951 54.6875 123.123 53.772 123.447 52.4683L124.912 46.6089C125.374 44.7607 123.975 42.9688 122.068 42.9688ZM36.1157 38.6157C37.8955 34.1675 42.2046 31.25 46.9971 31.25H78.003C82.7954 31.25 87.1045 34.1675 88.8843 38.6157L93.75 50.7812H31.25L36.1157 38.6157ZM23.4375 78.0762C18.75 78.0762 15.625 74.9609 15.625 70.2881C15.625 65.6152 18.75 62.5 23.4375 62.5C28.125 62.5 35.1563 69.5093 35.1563 74.1821C35.1563 78.855 28.125 78.0762 23.4375 78.0762ZM101.563 78.0762C96.875 78.0762 89.8438 78.855 89.8438 74.1821C89.8438 69.5093 96.875 62.5 101.563 62.5C106.25 62.5 109.375 65.6152 109.375 70.2881C109.375 74.9609 106.25 78.0762 101.563 78.0762Z" fill="#FAFF00"/>
</g>
<defs>
<clipPath id="clip0">
<rect width="125" height="125" fill="white"/>
</clipPath>
</defs>
</svg>
