<svg width="125" height="100" viewBox="0 0 125 100" fill="none" xmlns="http://www.w3.org/2000/svg">
<g clip-path="url(#clip0)">
<path d="M100.02 37.3047L98.418 40.0977C97.832 41.1328 96.582 41.5625 95.4688 41.1524C93.1641 40.293 91.0547 39.0625 89.1992 37.5196C88.3008 36.7774 88.0664 35.4688 88.6523 34.4531L90.2539 31.6602C88.9063 30.0977 87.8516 28.2813 87.1484 26.3086H83.9258C82.7539 26.3086 81.7383 25.4688 81.543 24.2969C81.1524 21.9531 81.1328 19.4922 81.543 17.0508C81.7383 15.8789 82.7539 15.0196 83.9258 15.0196H87.1484C87.8516 13.0469 88.9063 11.2305 90.2539 9.66799L88.6523 6.87502C88.0664 5.8594 88.2813 4.5508 89.1992 3.80862C91.0547 2.26565 93.1836 1.03518 95.4688 0.175804C96.582 -0.234352 97.832 0.195335 98.418 1.23049L100.02 4.02346C102.07 3.65237 104.16 3.65237 106.211 4.02346L107.813 1.23049C108.398 0.195335 109.648 -0.234352 110.762 0.175804C113.066 1.03518 115.176 2.26565 117.031 3.80862C117.93 4.5508 118.164 5.8594 117.578 6.87502L115.977 9.66799C117.324 11.2305 118.379 13.0469 119.082 15.0196H122.305C123.477 15.0196 124.492 15.8594 124.688 17.0313C125.078 19.375 125.098 21.836 124.688 24.2774C124.492 25.4492 123.477 26.3086 122.305 26.3086H119.082C118.379 28.2813 117.324 30.0977 115.977 31.6602L117.578 34.4531C118.164 35.4688 117.949 36.7774 117.031 37.5196C115.176 39.0625 113.047 40.293 110.762 41.1524C109.648 41.5625 108.398 41.1328 107.813 40.0977L106.211 37.3047C104.18 37.6758 102.07 37.6758 100.02 37.3047ZM97.9688 25.8203C105.488 31.6016 114.063 23.0274 108.281 15.5078C100.762 9.70706 92.1875 18.3008 97.9688 25.8203ZM75.4492 55.8789L82.0313 59.1602C84.0039 60.293 84.8633 62.6953 84.082 64.8438C82.3438 69.5703 78.9258 73.9063 75.7617 77.6953C74.3164 79.4336 71.8164 79.8633 69.8438 78.7305L64.1602 75.4492C61.0352 78.125 57.4024 80.2539 53.4375 81.6406V88.2031C53.4375 90.4688 51.8164 92.4219 49.5898 92.8125C44.7852 93.6328 39.7461 93.6719 34.7656 92.8125C32.5195 92.4219 30.8594 90.4883 30.8594 88.2031V81.6406C26.8945 80.2344 23.2617 78.125 20.1367 75.4492L14.4531 78.711C12.5 79.8438 9.98048 79.4141 8.53516 77.6758C5.3711 73.8867 2.03126 69.5508 0.292975 64.8438C-0.488275 62.7149 0.3711 60.3125 2.34376 59.1602L8.84766 55.8789C8.08594 51.7969 8.08594 47.5977 8.84766 43.4961L2.34376 40.1953C0.3711 39.0625 -0.507806 36.6602 0.292975 34.5313C2.03126 29.8047 5.3711 25.4688 8.53516 21.6797C9.98048 19.9414 12.4805 19.5117 14.4531 20.6446L20.1367 23.9258C23.2617 21.25 26.8945 19.1211 30.8594 17.7344V11.1524C30.8594 8.90627 32.4609 6.95315 34.6875 6.56252C39.4922 5.74221 44.5508 5.70315 49.5313 6.54299C51.7774 6.93362 53.4375 8.86721 53.4375 11.1524V17.7149C57.4024 19.1211 61.0352 21.2305 64.1602 23.9063L69.8438 20.625C71.7969 19.4922 74.3164 19.9219 75.7617 21.6602C78.9258 25.4492 82.2461 29.7852 83.9844 34.5117C84.7656 36.6406 84.0039 39.043 82.0313 40.1953L75.4492 43.4766C76.2109 47.5781 76.2109 51.7774 75.4492 55.8789ZM52.4805 60C64.043 44.961 46.875 27.793 31.8359 39.3555C20.2734 54.3946 37.4414 71.5625 52.4805 60ZM100.02 95.6836L98.418 98.4766C97.832 99.5117 96.582 99.9414 95.4688 99.5313C93.1641 98.6719 91.0547 97.4414 89.1992 95.8985C88.3008 95.1563 88.0664 93.8477 88.6523 92.832L90.2539 90.0391C88.9063 88.4766 87.8516 86.6602 87.1484 84.6875H83.9258C82.7539 84.6875 81.7383 83.8477 81.543 82.6758C81.1524 80.332 81.1328 77.8711 81.543 75.4297C81.7383 74.2578 82.7539 73.3985 83.9258 73.3985H87.1484C87.8516 71.4258 88.9063 69.6094 90.2539 68.0469L88.6523 65.2539C88.0664 64.2383 88.2813 62.9297 89.1992 62.1875C91.0547 60.6446 93.1836 59.4141 95.4688 58.5547C96.582 58.1446 97.832 58.5742 98.418 59.6094L100.02 62.4024C102.07 62.0313 104.16 62.0313 106.211 62.4024L107.813 59.6094C108.398 58.5742 109.648 58.1446 110.762 58.5547C113.066 59.4141 115.176 60.6446 117.031 62.1875C117.93 62.9297 118.164 64.2383 117.578 65.2539L115.977 68.0469C117.324 69.6094 118.379 71.4258 119.082 73.3985H122.305C123.477 73.3985 124.492 74.2383 124.688 75.4102C125.078 77.7539 125.098 80.2149 124.688 82.6563C124.492 83.8281 123.477 84.6875 122.305 84.6875H119.082C118.379 86.6602 117.324 88.4766 115.977 90.0391L117.578 92.832C118.164 93.8477 117.949 95.1563 117.031 95.8985C115.176 97.4414 113.047 98.6719 110.762 99.5313C109.648 99.9414 108.398 99.5117 107.813 98.4766L106.211 95.6836C104.18 96.0547 102.07 96.0547 100.02 95.6836ZM97.9688 84.1797C105.488 89.961 114.063 81.3867 108.281 73.8672C100.762 68.086 92.1875 76.6602 97.9688 84.1797Z" fill="#FAFF00"/>
</g>
<defs>
<clipPath id="clip0">
<rect width="125" height="100" fill="white"/>
</clipPath>
</defs>
</svg>
