<svg width="125" height="100" viewBox="0 0 125 100" fill="none" xmlns="http://www.w3.org/2000/svg">
<path d="M96.875 50C98.5938 50 100 48.5938 100 46.875C100 45.1562 98.5938 43.75 96.875 43.75C95.1562 43.75 93.75 45.1562 93.75 46.875C93.75 48.5938 95.1562 50 96.875 50ZM62.5 34.375C71.9727 34.375 79.6875 26.6602 79.6875 17.1875C79.6875 7.71484 71.9727 0 62.5 0C53.0273 0 45.3125 7.71484 45.3125 17.1875C45.3125 26.6602 53.0273 34.375 62.5 34.375ZM11.6797 71.0938C13.6719 74.082 17.4023 74.5703 20.0586 73.0078C23.2227 71.1328 31.0352 66.8164 40.625 63.5156V81.25H84.375V63.5352C93.9648 66.8164 101.777 71.1523 104.941 73.0273C107.598 74.5898 111.328 74.0625 113.32 71.1133L116.797 65.8984C118.516 63.3203 118.281 59.1406 114.844 57.0898C112.52 55.7031 109.043 53.7695 104.863 51.7383C99.375 60.7422 85.4492 55.2148 87.7344 44.8828C79.9414 42.4219 71.3086 40.625 62.5 40.625C51.3672 40.625 40.4492 43.457 31.25 46.9141C31.2109 54.7656 21.9531 59.2773 15.7813 53.9453C13.5938 55.1172 11.6211 56.2109 10.1758 57.0703C6.73828 59.1211 6.50391 63.2812 8.22266 65.8789L11.6797 71.0938ZM71.875 67.1875C74.4727 67.1875 76.5625 69.2773 76.5625 71.875C76.5625 74.4727 74.4727 76.5625 71.875 76.5625C69.2773 76.5625 67.1875 74.4727 67.1875 71.875C67.1875 69.2773 69.2773 67.1875 71.875 67.1875ZM53.125 48.4375C55.7227 48.4375 57.8125 50.5273 57.8125 53.125C57.8125 55.7227 55.7227 57.8125 53.125 57.8125C50.5273 57.8125 48.4375 55.7227 48.4375 53.125C48.4375 50.5273 50.5273 48.4375 53.125 48.4375ZM21.875 50C23.5938 50 25 48.5938 25 46.875C25 45.1562 23.5938 43.75 21.875 43.75C20.1562 43.75 18.75 45.1562 18.75 46.875C18.75 48.5938 20.1562 50 21.875 50ZM121.875 87.5H3.125C1.40625 87.5 0 88.9062 0 90.625V96.875C0 98.5938 1.40625 100 3.125 100H121.875C123.594 100 125 98.5938 125 96.875V90.625C125 88.9062 123.594 87.5 121.875 87.5Z" fill="#FAFF00"/>
</svg>
