<?xml version="1.0"?>
<svg xmlns="http://www.w3.org/2000/svg" version="1" viewBox="0 0 24 24" enable-background="new 0 0 24 24">
    <path d="M 12 2 C 6.5 2 2 6.5 2 12 C 2 17.5 6.5 22 12 22 C 17.5 22 22 17.5 22 12 C 22 6.5 17.5 2 12 2 z M 12 5 C 15.9 5 19 8.1 19 12 C 19 15.9 15.9 19 12 19 C 8.1 19 5 15.9 5 12 C 5 8.1 8.1 5 12 5 z M 12 6 C 11.3 6 10.69375 6.1125 10.09375 6.3125 C 10.59375 6.3125 11.1 6.7125 11 7.3125 L 11 9 C 10.6 9.1 10.3 9.29375 10 9.59375 L 8.40625 8.8125 C 7.90625 8.6125 7.7 8 8 7.5 C 7.1 8.3 6.39375 9.5125 6.09375 10.8125 C 6.29375 10.4125 6.90625 10.2 7.40625 10.5 L 8.90625 11.5 C 8.90625 11.7 8.8125 11.89375 8.8125 12.09375 C 8.8125 12.29375 8.80625 12.4875 8.90625 12.6875 L 7.40625 13.6875 C 6.90625 13.9875 6.29375 13.80625 6.09375 13.40625 C 6.39375 14.70625 7 15.7875 8 16.6875 C 7.7 16.2875 7.90625 15.70625 8.40625 15.40625 L 10 14.59375 C 10.3 14.89375 10.6 14.9875 11 15.1875 L 11.09375 17 C 11.09375 17.6 10.6875 18 10.1875 18 C 10.7875 18.2 11.39375 18.3125 12.09375 18.3125 C 12.79375 18.3125 13.4 18.2 14 18 C 13.5 18 12.99375 17.6 13.09375 17 L 13.1875 15.1875 C 13.5875 15.0875 13.89375 14.89375 14.09375 14.59375 L 15.6875 15.40625 C 16.1875 15.70625 16.29375 16.2875 16.09375 16.6875 C 16.99375 15.8875 17.7 14.7 18 13.5 C 17.6 13.7 16.99375 13.89375 16.59375 13.59375 L 15.09375 12.59375 C 15.09375 12.39375 15.1875 12.2 15.1875 12 C 15.1875 11.8 15.19375 11.60625 15.09375 11.40625 L 16.59375 10.40625 C 17.09375 10.10625 17.70625 10.2875 17.90625 10.6875 C 17.60625 9.3875 16.9 8.3 16 7.5 C 16.3 7.9 16.09375 8.5125 15.59375 8.8125 L 14 9.59375 L 13.09375 9 L 13 7.3125 C 13 6.7125 13.40625 6.3125 13.90625 6.3125 C 13.30625 6.1125 12.7 6 12 6 z M 12 10.5 C 12.8 10.5 13.5 11.2 13.5 12 C 13.5 12.8 12.8 13.5 12 13.5 C 11.2 13.5 10.5 12.8 10.5 12 C 10.5 11.2 11.2 10.5 12 10.5 z"/>
</svg>
