<svg width="125" height="125" viewBox="0 0 125 125" fill="none" xmlns="http://www.w3.org/2000/svg">
<path d="M62.5 10.4167C33.8541 10.4167 10.4166 33.8542 10.4166 62.5C10.4166 91.1458 33.8541 114.583 62.5 114.583C91.1458 114.583 114.583 91.1458 114.583 62.5C114.583 33.8542 91.1458 10.4167 62.5 10.4167ZM62.5 26.0417C82.8125 26.0417 98.9583 42.1875 98.9583 62.5C98.9583 82.8125 82.8125 98.9583 62.5 98.9583C42.1875 98.9583 26.0416 82.8125 26.0416 62.5C26.0416 42.1875 42.1875 26.0417 62.5 26.0417ZM62.5 31.25C58.8541 31.25 55.6966 31.8359 52.5716 32.8776C55.1758 32.8776 57.8125 34.9609 57.2916 38.0859V46.875C55.2083 47.3958 53.6458 48.4049 52.0833 49.9674L43.7825 45.8984C41.1784 44.8568 40.1041 41.6667 41.6666 39.0625C36.9791 43.2292 33.3008 49.5443 31.7383 56.3151C32.7799 54.2318 35.97 53.125 38.5742 54.6875L46.3867 59.8958C46.3867 60.9375 45.8984 61.9466 45.8984 62.9883C45.8984 64.0299 45.8659 65.0391 46.3867 66.0807L38.5742 71.2891C35.97 72.8516 32.7799 71.9076 31.7383 69.8242C33.3008 76.5951 36.4583 82.2266 41.6666 86.9141C40.1041 84.8307 41.1784 81.8034 43.7825 80.2409L52.0833 76.0091C53.6458 77.5716 55.2083 78.0599 57.2916 79.1016L57.7799 88.5417C57.7799 91.6667 55.664 93.75 53.0599 93.75C56.1849 94.7917 59.3424 95.3776 62.9883 95.3776C66.6341 95.3776 69.7916 94.7917 72.9166 93.75C70.3125 93.75 67.6758 91.6667 68.1966 88.5417L68.6849 79.1016C70.7682 78.5807 72.3633 77.5716 73.4049 76.0091L81.7057 80.2409C84.3099 81.8034 84.8633 84.8307 83.8216 86.9141C88.5091 82.7474 92.1875 76.5625 93.75 70.3125C91.6666 71.3542 88.5091 72.3633 86.4258 70.8008L78.6133 65.5924C78.6133 64.5508 79.1015 63.5417 79.1015 62.5C79.1015 61.4583 79.1341 60.4492 78.6133 59.4076L86.4258 54.1992C89.0299 52.6367 92.22 53.5807 93.2617 55.6641C91.6992 48.8932 88.0208 43.2292 83.3333 39.0625C84.8958 41.1458 83.8216 44.3359 81.2174 45.8984L72.9166 49.9674L68.1966 46.875L67.7083 38.0859C67.7083 34.9609 69.8242 32.8776 72.4284 32.8776C69.3034 31.8359 66.1458 31.25 62.5 31.25ZM62.5 54.6875C66.6666 54.6875 70.3125 58.3333 70.3125 62.5C70.3125 66.6667 66.6666 70.3125 62.5 70.3125C58.3333 70.3125 54.6875 66.6667 54.6875 62.5C54.6875 58.3333 58.3333 54.6875 62.5 54.6875Z" fill="#FAFF00"/>
</svg>
