<svg width="100" height="100" viewBox="0 0 100 100" fill="none" xmlns="http://www.w3.org/2000/svg">
<g clip-path="url(#clip0)">
<path d="M99.1646 21.3087C98.7271 19.545 96.5201 18.9473 95.2349 20.2325L80.7117 34.7559L67.4541 32.547L65.2451 19.2891L79.7684 4.7657C81.0613 3.47273 80.4383 1.26961 78.6629 0.828202C69.4091 -1.46477 59.2198 1.00594 51.9875 8.2364C44.2454 15.9786 42.1146 27.2012 45.3372 36.9864L3.6601 78.6641C-1.22069 83.545 -1.22069 91.4591 3.6601 96.3399C8.54089 101.221 16.4548 101.221 21.3356 96.3399L62.9776 54.6973C72.7665 57.961 83.9675 55.8067 91.7604 48.0137C99.0005 40.7735 101.467 30.5684 99.1646 21.3087ZM12.4998 92.1876C9.91196 92.1876 7.81239 90.088 7.81239 87.5001C7.81239 84.9102 9.91196 82.8126 12.4998 82.8126C15.0877 82.8126 17.1872 84.9102 17.1872 87.5001C17.1872 90.088 15.0877 92.1876 12.4998 92.1876Z" fill="#FAFF00"/>
</g>
<defs>
<clipPath id="clip0">
<rect width="100" height="100" fill="white"/>
</clipPath>
</defs>
</svg>
